/* XPM */
static char * freepops_setup_xpm[] = {
"32 32 13 1",
" 	c None",
".	c #808080",
"+	c #000000",
"@	c #C0C0C0",
"#	c #000080",
"$	c #FFFFFF",
"%	c #FF0000",
"&	c #800000",
"*	c #008080",
"=	c #0000FF",
"-	c #FFFF00",
";	c #00FFFF",
">	c #808000",
"      .........................+",
"      .@@@@@@@@@@@@@@@@@@@@@@@.+",
"      .@######################.+",
"      .@#############@@+@@+@@+.+",
"      .@#############@@+@@+@@+.+",
"      .@#############+++++++++.+",
"      .@@@@@@@@@@@@@@@@@@@@@@@.+",
"      .@.....................@.+",
"      .@.$$$$$$$$$$$$$$$$$$$$@.+",
"      .@.$$%%&$$$$***$$$$==#$@.+",
"      .@.$$%-&$$$$*;*$$$$=;#$@.+",
"      .@.$&&&&$$$***#$$$####$@.+",
"    > .@.$$+++$$$$###$$$$+>+$@.+",
"   >$>.@.$$$$$$$$$$$$$$$$>+$$@.+",
"  >$@$>@.$....$$$....$$$>>+.$@.+",
" >$@$@$>.$$$$$$$$$$$$$$>>+$$$@.+",
".>@$@$@$>>>>>>>>>>>>>>>>++$$$@.+",
" .>@$@$>>$$$$$$$$$$$$>>+>+$$$@.+",
"  .>@$>>>$$$$$$$$$$$$>+>>+$$$@.+",
"   .>>>>>$$$$$$$$$$$>+>>>+$$$@.+",
"    .>>>>>>>>>>>>>>>+>>>>+@@@@.+",
"    .$@-@-@-@-@-@-@->>>>>+.....+",
"    .$%%%%%@-#####-@>>>>>+++++++",
"    .$%%%%%-@######->>>>>+      ",
"    .$%%-@-@-##@-##@>>>>>+      ",
"    .$%%%%%-@######->>>>>+      ",
"    .$%%%%%@-#####-@>>>>>+      ",
"    .$%%@-@-@##-@-@->>>>+       ",
"    .$%%-@-@-##@-@-@>>>+        ",
"    .$%%@-@-@##-@-@->>+         ",
"    .>>>>>>>>>>>>>>>>+          ",
"    +++++++++++++++++           "};
