/* XPM */
static char * freepops_remove_xpm[] = {
"32 32 7 1",
" 	c None",
".	c #000000",
"+	c #FFFFFF",
"@	c #808080",
"#	c #C0C0C0",
"$	c #FF0000",
"%	c #000080",
"        .......                 ",
"      ..++@#@++..               ",
"    ..++@@@.@##++..             ",
"  ..++@@@@@.@@###++..           ",
" .++@@@@@@@.@@#####++..         ",
" .+@@@@@@@@.@@@######++..       ",
"  @++@@@@@@.@@@########++..     ",
"  @##++@@@@.@@@@#########++..   ",
"  @####++@@.@@@@###########++.  ",
"  @######++@@@@@@############+. ",
"   @#######++@@@@#########@@++. ",
"   @##@@#####++@@@######@@++@.  ",
"   @##@$@@#####++@@###@@++@@@.  ",
"   @##@$$$@@#####++@@@++@@@@@.  ",
"   @##@$$$$$@@#####+++@@@@@@@.  ",
"    @#@$$+$$%%@@#####@@@@@@@.   ",
"    @#@$$$++%%%%@####@@@@@@@.   ",
"    @#@$$$$$%%%%%@###@@@@@@@.   ",
"    @#@$$+$$%%+%%@###@@@@@@@.   ",
"    @##$$+++%%%%%@###@@@@@@@.   ",
"     @#@@+++%%%%%@###@@@@@@.    ",
"     @###@@+%%+++@###@@@@@@.    ",
"     @#####@@%+++@###@@@@@@.    ",
"     @#######@@++@###@@@@@@.    ",
"     ..########@@@###@@@@@@.    ",
"       ..############@@@@@.     ",
"         ..##########@@@@@.     ",
"           ..########@@@@@.     ",
"             ..######@@@@@.     ",
"               ..####@@@..      ",
"                 ..##@..        ",
"                   ...          "};
