/* XPM */
static char *freepops-32[] = {
/* columns rows colors chars-per-pixel */
"32 32 213 2",
"   c #002F00",
".  c #003100",
"X  c #083408",
"o  c #143814",
"O  c #1E3B1E",
"+  c #00007D",
"@  c #005500",
"#  c #005B00",
"$  c #0D5F00",
"%  c #1A5F00",
"&  c #016401",
"*  c #006B00",
"=  c #0D6300",
"-  c #0B650B",
";  c #0F690F",
":  c #006613",
">  c #007400",
",  c #007900",
"<  c #1C6400",
"1  c #1C6900",
"2  c #126912",
"3  c #1A6D1A",
"4  c #107510",
"5  c #00732C",
"6  c #007D2A",
"7  c #1C762B",
"8  c #285F3E",
"9  c #337401",
"0  c #237023",
"q  c #297229",
"w  c #207631",
"e  c #337533",
"r  c #3A773A",
"t  c #3D783D",
"y  c #660000",
"u  c #7B1100",
"i  c #7F3000",
"p  c #514C00",
"a  c #795300",
"s  c #417941",
"d  c #4B7B4B",
"f  c #517C51",
"g  c #000081",
"h  c #00008B",
"j  c #000093",
"k  c #00009C",
"l  c #0000A1",
"z  c #0404A8",
"x  c #0F0FA9",
"c  c #0000B6",
"v  c #0C0CB1",
"b  c #1818AD",
"n  c #1515B2",
"m  c #1717B9",
"M  c #1E1EB8",
"N  c #2323BB",
"B  c #2828BC",
"V  c #2B2BC7",
"C  c #663399",
"Z  c #623C9F",
"A  c #6C3B9D",
"S  c #653CA3",
"D  c #6D37A4",
"F  c #6D3DAA",
"G  c #7139AA",
"H  c #6C41AC",
"J  c #6F43B3",
"K  c #7044B3",
"L  c #7445BA",
"P  c #7648BD",
"I  c #4343C8",
"U  c #4949C6",
"Y  c #4949D2",
"T  c #7A49C3",
"R  c #7E4CC9",
"E  c #6262DB",
"W  c #6A6AD5",
"Q  c #6E6EDD",
"!  c #008300",
"~  c #008B00",
"^  c #009200",
"/  c #009B00",
"(  c #009213",
")  c #1B8328",
"_  c #00A400",
"`  c #00AB00",
"'  c #00B300",
"]  c #00BB00",
"[  c #0BBE0B",
"{  c #11B011",
"}  c #17BB17",
"|  c #268700",
" . c #2CA42C",
".. c #00C300",
"X. c #03CA03",
"o. c #0ACC0A",
"O. c #14C214",
"+. c #13CA13",
"@. c #1ACE1A",
"#. c #14D114",
"$. c #1DD71D",
"%. c #2BD62B",
"&. c #2BDD2B",
"*. c #30D230",
"=. c #34DF34",
"-. c #3DDE3D",
";. c #2BE22B",
":. c #33E033",
">. c #3AE63A",
",. c #478408",
"<. c #43AD43",
"1. c #44B044",
"2. c #53B253",
"3. c #45E745",
"4. c #4BE44B",
"5. c #51E451",
"6. c #56ED56",
"7. c #58E758",
"8. c #5BEE5B",
"9. c #64EA64",
"0. c #69F369",
"q. c #72F272",
"w. c #7BF77B",
"e. c #820000",
"r. c #8B0000",
"t. c #930000",
"y. c #9C0000",
"u. c #993300",
"i. c #9E3E00",
"p. c #A20000",
"a. c #A60A0A",
"s. c #AA0404",
"d. c #AB0E0E",
"f. c #AE1111",
"g. c #B60000",
"h. c #B71818",
"j. c #A33D00",
"k. c #A83E00",
"l. c #B32525",
"z. c #A34300",
"x. c #AB4100",
"c. c #AA4800",
"v. c #B34300",
"b. c #BC4500",
"n. c #BE6214",
"m. c #C01919",
"M. c #C02B2B",
"N. c #CA2C2C",
"B. c #C04700",
"V. c #C14800",
"C. c #CB4C00",
"Z. c #CB5006",
"A. c #CF5A14",
"S. c #CE5D18",
"D. c #D6580B",
"F. c #DF5400",
"G. c #D85B12",
"H. c #D9641E",
"J. c #DC6620",
"K. c #DD6822",
"L. c #DE6F2E",
"P. c #EA722A",
"I. c #C84242",
"U. c #CA4C4C",
"Y. c #D54C4C",
"T. c #D65757",
"R. c #D76E6E",
"E. c #DD7B7B",
"W. c #8855CC",
"Q. c #8654D2",
"!. c #8957D3",
"~. c #8D5CD6",
"^. c #9467D5",
"/. c #9365D9",
"(. c #9768DE",
"). c #A077DC",
"_. c #A57BE5",
"`. c #8D9200",
"'. c #989800",
"]. c #E68041",
"[. c #E4864F",
"{. c #F08241",
"}. c #F39055",
"|. c #ED9B69",
" X c #F7A573",
".X c #E6E600",
"XX c #F3F300",
"oX c yellow",
"OX c #8D8DE3",
"+X c #9A9AE9",
"@X c #AD87E4",
"#X c #B68EF2",
"$X c #BD97F7",
"%X c #85F785",
"&X c #87FA87",
"*X c #88F788",
"=X c #94F794",
"-X c #91FB91",
";X c #9AFA9A",
":X c #A8FDA8",
">X c #B4FCB4",
",X c #E99797",
"<X c #F6B48D",
"1X c #F7B893",
"2X c #FBBE99",
"3X c #EAA2A2",
"4X c #C09FF1",
"5X c #C8ABF3",
"6X c #CCADF9",
"7X c #CEB3F5",
"8X c #DAC4F9",
"9X c gray100",
"0X c None",
/* pixels */
"0X0X0X0X0X0X0X0X0X0X0X0X0X0X0X0X0X0X0X0X0X0X0X0X0X0X0X0X0X0X0X0X",
"0X0X0X0X0X0X0X0X0X0X0X0X0X0Xg.h.d.t.0X0X0X0X0X0X0X0X0X0X0X0X0X0X",
"0X0X0X0X0X0X0X0X0X0X0X0X0Xp.T.,XU.p.r.0X0X0X0X0X0X0X0X0X0X0X0X0X",
"0X0X0X0X0X0X0X0X0X0X0X0X0Xd.R.E.h.y.r.0X0X0X0X0X0X0X0X0X0X0X0X0X",
"0X0X0X0X0X0X0X0XN.Y.M.p.0Xy.l.f.p.r.y 0X0X0X0X0X0X0X0X0X0X0X0X0X",
"0X0X0X0X0X0X0Xs.E.3XI.p.t.r.t.t.t.e.0X0X0X0X0X0X0X0X0X0X0X0X0X0X",
"0X0X0X0X0X0X0Xa.U.U.s.y.r...9 | ] ] ' ] 0X0X0X0X0X0X0X0X0X0X0X0X",
"0X0X0X0X0X0X0Xt.y.y.t.u X.o.;.>.:.&.#.' ` ` ` 0X0X0X0X0X0X0X0X0X",
"0X0X0X0X0X0X0Xr.r.r.p X.6.*Xw.0.6.3.;.$.X.` / _ 0X0X0X0X0X0X0X0X",
"0X0X0X0X0X0X0X0X0X..@.-X:X;X%Xq.8.4.:.$.o.X.' ^ / 0X0X0XF.0X0X0X",
"0X0X0Xm V n l 0X] O.=X>X>X;X%Xq.8.4.:.$.o.X.] ' ! / C.{.}.K.B.0X",
"0X0Xz Q +XI l 6 ' 2.d f f d t 2.1.0 3 4 ' ....] _ ~ H.1X<XK.B.k.",
"0X0Xn W W v l 5 *.s oXoXoXoXoXe q oXoXXX'.1 ] ' ` , A.[.L.C.v.u.",
"0X0Xj b z k h _ 5.r oXO t r e <.0 oXX = `.'._ ' ` > c.B.B.v.i.0X",
"0X0Xh j h h ( { 4.q oXe 9.9.7.4.3 oX& X.% .X> ' ` , a j.i.i.0X0X",
"0X0X0X+ g 0X/ } -.0 oXo q q 0  .; oX. $ `.'._ ` ` > 0X0X0X0X0X0X",
"0X0X0X0X0X0X^ } %.3 oXoXoXoXoX; & oXoXXX'.< ' ` / , 0X0X0X0X0X0X",
"0X0X0Xz 0X0X~ o.@.; oXX 2 2 ; ^ & oX  & _ ' ` ` * ,.P.H.b.0X0X0X",
"0Xc Y E B l ! ' ..& oX- +.+.....# oX# ' ' ` ` ~ 9  X2XL.C.c.0X0X",
"0XM OXOXM k : ` ] # oX# ..] ] ..# oX# ' ` ` / * n.|.|.D.b.j.0X0X",
"0Xx U B l j , / ' # oX# ] ' ] ' # oX@ ` ` / * ~ b.S.Z.V.k.0X0X0X",
"0Xj k k j h ! , ` ~ # ! ' ' ' ' ! @ ! _ ~ & ~ 0Xx.v.k.k.z.0X0X0X",
"0Xg h g + 0X~ # ` ` ` ` ` ` ` ` ` _ _ ! & ) 0X0X0Xi.u.0X0X0X0X0X",
"0X0X0X0X0X0X0X> & _ ` ` _ ` ` _ _ ! # w $X#X!.L 0X0X0X0X0X0X0X0X",
"0X0X0X0X0X0X0X` * @ ~ / ^ ^ ~ , @ > ~ _.8X$XQ.L 0X0X0X0X0X0X0X0X",
"0X0X0X0X0X0X0X0X0X! * @ @ & 8 7 ~ 0XL ^.@X~.T J 0X0X0X0X0X0X0X0X",
"0X0X0X0X0X0X0X0X0X0X0X0XW.#X6X_.T 0XF L P P H S 0X0X0X0X0X0X0X0X",
"0X0X0X0X0X0X0X0X0X0X0X0X~.5X7X(.T S 0XZ H S G 0X0X0X0X0X0X0X0X0X",
"0X0X0X0X0X0X0X0X0X0X0X0XR )./.R K C 0X0X0X0X0X0X0X0X0X0X0X0X0X0X",
"0X0X0X0X0X0X0X0X0X0X0X0XH L L K S 0X0X0X0X0X0X0X0X0X0X0X0X0X0X0X",
"0X0X0X0X0X0X0X0X0X0X0X0XD S Z A 0X0X0X0X0X0X0X0X0X0X0X0X0X0X0X0X",
"0X0X0X0X0X0X0X0X0X0X0X0X0X0X0X0X0X0X0X0X0X0X0X0X0X0X0X0X0X0X0X0X"
};
