/* XPM */
static char * liberopops_32_xpm[] = {
"32 32 466 2",
"  	c None",
". 	c #CDE1F5",
"+ 	c #A2C7ED",
"@ 	c #79AFE4",
"# 	c #4D94DB",
"$ 	c #3E8BD8",
"% 	c #3D8AD8",
"& 	c #428DD8",
"* 	c #69A4DF",
"= 	c #8AB9E8",
"- 	c #BCD7F2",
"; 	c #B9D4EF",
"> 	c #83B5E6",
", 	c #5E9FDF",
"' 	c #589BDD",
") 	c #4E95DC",
"! 	c #4891DA",
"~ 	c #3F8CD9",
"{ 	c #3D8BD8",
"] 	c #3988D8",
"^ 	c #3485D7",
"/ 	c #2F82D6",
"( 	c #468FD8",
"_ 	c #84B2E0",
": 	c #C6DDF4",
"< 	c #89B8E8",
"[ 	c #71A9E1",
"} 	c #65A3E0",
"| 	c #5297DC",
"1 	c #4590DA",
"2 	c #3A89D8",
"3 	c #3384D6",
"4 	c #3184D6",
"5 	c #2F82D5",
"6 	c #2A7FD5",
"7 	c #287ED4",
"8 	c #277DD4",
"9 	c #2179D1",
"0 	c #1A72C8",
"a 	c #3280CD",
"b 	c #90B7DF",
"c 	c #AFCEEF",
"d 	c #84B5E7",
"e 	c #70A7E0",
"f 	c #5E9EDD",
"g 	c #2C80D5",
"h 	c #297ED4",
"i 	c #267DD4",
"j 	c #2179D0",
"k 	c #1F77CF",
"l 	c #1D76CF",
"m 	c #1B74CD",
"n 	c #176FC6",
"o 	c #146CC3",
"p 	c #1B6DBF",
"q 	c #5893CD",
"r 	c #BED6F2",
"s 	c #ACCDEE",
"t 	c #97C1EA",
"u 	c #70A8E1",
"v 	c #4C94DB",
"w 	c #2C81D5",
"x 	c #2279D1",
"y 	c #1974D0",
"z 	c #1673D0",
"A 	c #1472D0",
"B 	c #1270CE",
"C 	c #0E6AC6",
"D 	c #0D69C4",
"E 	c #0B65C0",
"F 	c #1166BB",
"G 	c #4283C6",
"H 	c #E2ECF7",
"I 	c #DEE9F5",
"J 	c #DCE3EC",
"K 	c #D7DFE9",
"L 	c #D2E4F6",
"M 	c #267CD2",
"N 	c #1974CF",
"O 	c #0F6FCE",
"P 	c #0B6CCD",
"Q 	c #0A6BCD",
"R 	c #0468CD",
"S 	c #0368CD",
"T 	c #0669CD",
"U 	c #096BCD",
"V 	c #096ACC",
"W 	c #0A67C5",
"X 	c #0462C0",
"Y 	c #035FBC",
"Z 	c #0A60B6",
"` 	c #4F8AC4",
" .	c #E3EDF9",
"..	c #DCE4EF",
"+.	c #F59B60",
"@.	c #FC741A",
"#.	c #CBD0D4",
"$.	c #78AEE4",
"%.	c #106FCF",
"&.	c #0167CC",
"*.	c #0166CC",
"=.	c #0066CC",
"-.	c #0166CB",
";.	c #0261BF",
">.	c #025FBD",
",.	c #0059B2",
"'.	c #0E60B2",
").	c #85ACD4",
"!.	c #B8D5F1",
"~.	c #D9D3D4",
"{.	c #F1843D",
"].	c #FF6600",
"^.	c #CCA28D",
"/.	c #0568CD",
"(.	c #0062C4",
"_.	c #005DBC",
":.	c #005AB5",
"<.	c #0058B1",
"[.	c #2069B2",
"}.	c #B8D3EE",
"|.	c #A5C9EC",
"1.	c #F0843D",
"2.	c #BFB2B2",
"3.	c #8CBAE7",
"4.	c #0367CC",
"5.	c #0F6ECE",
"6.	c #1B76D1",
"7.	c #1372D0",
"8.	c #0267CC",
"9.	c #0063C6",
"0.	c #0060C2",
"a.	c #005BB6",
"b.	c #0054A9",
"c.	c #6F9AC5",
"d.	c #81B3E4",
"e.	c #9EC4EA",
"f.	c #D9CAC5",
"g.	c #F17E34",
"h.	c #BFC8D7",
"i.	c #66A2DD",
"j.	c #1171D0",
"k.	c #3283D6",
"l.	c #5296DB",
"m.	c #76ACE2",
"n.	c #90BDE9",
"o.	c #81B3E6",
"p.	c #5599DD",
"q.	c #3C8AD7",
"r.	c #156EC8",
"s.	c #005DBA",
"t.	c #2468AC",
"u.	c #95C0EA",
"v.	c #DDBAA8",
"w.	c #F37522",
"x.	c #BFD0E4",
"y.	c #0D6ECF",
"z.	c #4991D8",
"A.	c #82B3E5",
"B.	c #A0C2EC",
"C.	c #9DB8EB",
"D.	c #829FE6",
"E.	c #6C90E1",
"F.	c #7695E4",
"G.	c #9DB6E9",
"H.	c #A6C4ED",
"I.	c #83B1E0",
"J.	c #307CC9",
"K.	c #035AB3",
"L.	c #004F9F",
"M.	c #9FB8D2",
"N.	c #A0C7ED",
"O.	c #8BBAE8",
"P.	c #DBB9A7",
"Q.	c #F17422",
"R.	c #BDCFE3",
"S.	c #2B80D5",
"T.	c #63A1E0",
"U.	c #B1CCEC",
"V.	c #809EE2",
"W.	c #4D75DB",
"X.	c #2152D3",
"Y.	c #0639CD",
"Z.	c #0033CC",
"`.	c #194ACF",
" +	c #436DD9",
".+	c #809EE4",
"++	c #9BC0E6",
"@+	c #377BC1",
"#+	c #0053A6",
"$+	c #004D9A",
"%+	c #618BB6",
"&+	c #4B93DB",
"*+	c #88B8E7",
"=+	c #D9B8A7",
"-+	c #F07322",
";+	c #C5DCF3",
">+	c #4972DA",
",+	c #1042CE",
"'+	c #0134CC",
")+	c #1A4BD1",
"!+	c #89A7E5",
"~+	c #88AFD5",
"{+	c #135EA8",
"]+	c #004B95",
"^+	c #3A70A7",
"/+	c #4A92DB",
"(+	c #4791DA",
"_+	c #88B7E9",
":+	c #DBB8A9",
"<+	c #D7E7F7",
"[+	c #194CD1",
"}+	c #0D40CF",
"|+	c #6A90E1",
"1+	c #BBCBF1",
"2+	c #2B5AD5",
"3+	c #0235CC",
"4+	c #3964D6",
"5+	c #95B5E1",
"6+	c #417DB7",
"7+	c #004A93",
"8+	c #0B5093",
"9+	c #86B5E5",
"0+	c #DDB9A6",
"a+	c #C0D9F3",
"b+	c #5A86DE",
"c+	c #2656D4",
"d+	c #A1B9EC",
"e+	c #B1CDEC",
"f+	c #D8E6F9",
"g+	c #80A5E6",
"h+	c #1748CF",
"i+	c #86A5E3",
"j+	c #5F90C3",
"k+	c #00478F",
"l+	c #004991",
"m+	c #3988D7",
"n+	c #3B89D8",
"o+	c #83B3E4",
"p+	c #DDB9A5",
"q+	c #ABCDEE",
"r+	c #7098E2",
"s+	c #3866D7",
"t+	c #99BCEB",
"u+	c #5D9DDF",
"v+	c #BED6EF",
"w+	c #658DE0",
"x+	c #2352D1",
"y+	c #8BACDF",
"z+	c #5084B8",
"A+	c #00468D",
"B+	c #004992",
"C+	c #418DD8",
"D+	c #3887D7",
"E+	c #82B3E4",
"F+	c #0A6CCE",
"G+	c #729AE3",
"H+	c #A1C1EC",
"I+	c #C6DBF3",
"J+	c #ACC4EE",
"K+	c #1242D0",
"L+	c #0336CC",
"M+	c #4B73D8",
"N+	c #93B7DA",
"O+	c #2567A9",
"P+	c #00468C",
"Q+	c #0A4F94",
"R+	c #68A3DF",
"S+	c #3586D7",
"T+	c #81B3E5",
"U+	c #DEBAA6",
"V+	c #C1D1E4",
"W+	c #4C93DB",
"X+	c #2D81D5",
"Y+	c #5398DD",
"Z+	c #6EA8E2",
"`+	c #CEDFF2",
" @	c #89A7E8",
".@	c #3462D6",
"+@	c #A0BBEC",
"@@	c #95B2E9",
"#@	c #2454D3",
"$@	c #1E4DD1",
"%@	c #8CABE3",
"&@	c #6D9DCC",
"*@	c #044F9B",
"=@	c #004489",
"-@	c #386CA0",
";@	c #8AB8E8",
">@	c #3183D6",
",@	c #80B3E5",
"'@	c #DFBBA7",
")@	c #C5D4E3",
"!@	c #ACCCED",
"~@	c #A4C4E5",
"{@	c #BAC9DC",
"]@	c #D7C7C3",
"^@	c #EDC5AC",
"/@	c #F6B992",
"(@	c #F6D9C6",
"_@	c #B3B8D9",
":@	c #1849D1",
"<@	c #3564D7",
"[@	c #1243D0",
"}@	c #093BCE",
"|@	c #6B92E0",
"1@	c #A2C0E0",
"2@	c #276BAE",
"3@	c #004284",
"4@	c #6186AB",
"5@	c #86B7E7",
"6@	c #7DB0E3",
"7@	c #E49664",
"8@	c #EFA06D",
"9@	c #E79765",
"0@	c #E38D56",
"a@	c #E77C38",
"b@	c #F0711F",
"c@	c #FC6805",
"d@	c #FFB684",
"e@	c #CDBEC6",
"f@	c #0F42CF",
"g@	c #7095E2",
"h@	c #9BC1E6",
"i@	c #3E7CBA",
"j@	c #034F9A",
"k@	c #004488",
"l@	c #003F7D",
"m@	c #6182A2",
"n@	c #448DD6",
"o@	c #76AAE0",
"p@	c #D7BBAF",
"q@	c #EF7627",
"r@	c #FFAA72",
"s@	c #D4C3CB",
"t@	c #1547D0",
"u@	c #4F78DC",
"v@	c #98B3EB",
"w@	c #99C0E5",
"x@	c #3A7DBF",
"y@	c #02509D",
"z@	c #00478E",
"A@	c #003E7D",
"B@	c #245586",
"C@	c #65A0DA",
"D@	c #C5C5CE",
"E@	c #EC803B",
"F@	c #E77A34",
"G@	c #DA844E",
"H@	c #E3BBA5",
"I@	c #CACFE3",
"J@	c #1647CE",
"K@	c #6F91E0",
"L@	c #B4C8F2",
"M@	c #A0C2ED",
"N@	c #5C99D6",
"O@	c #1E6DBD",
"P@	c #0353A4",
"Q@	c #004182",
"R@	c #003B76",
"S@	c #7189A7",
"T@	c #5999DA",
"U@	c #AACAEB",
"V@	c #EB9761",
"W@	c #FC6806",
"X@	c #E37E3F",
"Y@	c #CCBEBC",
"Z@	c #D9D2D1",
"`@	c #F0E5E0",
" #	c #FAEBE2",
".#	c #F3EBE8",
"+#	c #E2E5E9",
"@#	c #E0E8F1",
"##	c #C4D3F2",
"$#	c #1C4DCF",
"%#	c #95B0E7",
"&#	c #62A0E0",
"*#	c #1770C8",
"=#	c #075EB4",
"-#	c #0052A5",
";#	c #004385",
">#	c #003C77",
",#	c #205080",
"'#	c #97BCE2",
")#	c #6DA4DB",
"!#	c #BED8F1",
"~#	c #C5B2AD",
"{#	c #BDB9BE",
"]#	c #DEEBF7",
"^#	c #7EB1E3",
"/#	c #3585D6",
"(#	c #1E77D1",
"_#	c #0669CC",
":#	c #0066CB",
"<#	c #458FDA",
"[#	c #ACC8EE",
"}#	c #93B0E7",
"|#	c #478BCF",
"1#	c #0058B0",
"2#	c #0052A4",
"3#	c #004891",
"4#	c #0E4174",
"5#	c #859BB2",
"6#	c #639BD4",
"7#	c #4B8ED1",
"8#	c #7CADDF",
"9#	c #6FA4D8",
"0#	c #1F71C3",
"a#	c #0160BE",
"b#	c #0061C3",
"c#	c #3283D3",
"d#	c #D9E3F7",
"e#	c #96B0E8",
"f#	c #4B86C4",
"g#	c #004081",
"h#	c #003B74",
"i#	c #093E73",
"j#	c #4F7295",
"k#	c #4889CA",
"l#	c #0B61B8",
"m#	c #015EBB",
"n#	c #015FBC",
"o#	c #2374C5",
"p#	c #E3E8F9",
"q#	c #093CCE",
"r#	c #92ABE9",
"s#	c #5286BA",
"t#	c #00407F",
"u#	c #003A72",
"v#	c #093A6B",
"w#	c #406489",
"x#	c #508CC8",
"y#	c #0E62B6",
"z#	c #0E63B8",
"A#	c #DDE5F6",
"B#	c #8EA6E8",
"C#	c #5481AE",
"D#	c #003F7E",
"E#	c #00376D",
"F#	c #0E3F6F",
"G#	c #4F6F90",
"H#	c #A2BDDA",
"I#	c #8BA7E2",
"J#	c #3C6BD1",
"K#	c #406CD4",
"L#	c #A0B8E1",
"M#	c #45709B",
"N#	c #003971",
"O#	c #204C78",
"P#	c #0050A0",
"Q#	c #004E9D",
"R#	c #004C98",
"S#	c #004890",
"T#	c #2D669F",
"U#	c #7DA0C4",
"V#	c #95B4D9",
"W#	c #94AFD4",
"X#	c #6D90B4",
"Y#	c #3E6892",
"Z#	c #618EBA",
"`#	c #618BB7",
" $	c #0B5096",
".$	c #014A92",
"+$	c #1D5C9C",
"@$	c #5E89B4",
"#$	c #86A1BD",
"$$	c #8098B0",
"                                                                ",
"                      . + @ # $ % & * = -                       ",
"                  ; > , ' ) ! ~ $ { ] ^ / ( _                   ",
"              : < [ } | 1 $ 2 3 4 5 6 7 8 9 0 a b               ",
"            c d e f # ~ 3 g h i j k l l l m n o p q             ",
"          r s t u v ] w x y z A B B B B B B C D E F G           ",
"        H I J K L # M N O P Q R S S S T U U V W X Y Z `         ",
"       ...+.@.@.#.$.%.T &.*.*.=.=.=.=.=.*.*.*.-.;.>.,.'.).      ",
"      !.~.{.].].^.t /.=.=.=.=.=.=.=.=.=.=.=.=.=.(._.:.<.[.      ",
"    }.|.~.1.].].2.3.=.=.=.=.=.=.=.=.=.4.5.6.7.8.9.0.a.<.b.c.    ",
"    d.e.f.g.].].h.i.=.=.=.=.=.=.&.j.k.l.m.n.o.p.q.r.s.<.b.t.    ",
"  . , u.v.w.].].x.2 =.=.=.=.=.y.z.A.B.C.D.E.F.G.H.I.J.K.b.L.M.  ",
"  N.| O.P.Q.].].R.S.=.=.=.=.=.T.U.V.W.X.Y.Z.Z.`. +.+++@+#+$+%+  ",
"  $.&+*+=+-+].].R.S.=.=.=.=.=.;+>+,+Z.Z.Z.Z.Z.Z.'+)+!+~+{+]+^+  ",
"  /+(+_+:+-+].].R.S.=.=.=.=.=.<+[+Z.Z.Z.}+|+1+2+Z.3+4+5+6+7+8+  ",
"  2 ~ 9+0+-+].].R.S.=.=.=.=.=.a+b+Z.Z.c+d+e+f+g+Z.Z.h+i+j+k+l+  ",
"  m+n+o+p+-+].].R.S.=.=.=.=.=.q+r+Z.Z.s+t+u+v+w+Z.Z.x+y+z+A+B+  ",
"  C+D+E+p+-+].].R.g =.=.=.=.F+s G+Z.Z.s+H+I+J+K+Z.L+M+N+O+P+Q+  ",
"  R+S+T+U+-+].].V+W+X+% &+Y+Z+`+ @Z.Z..@+@@@#@'+'+$@%@&@*@=@-@  ",
"  ;@>@,@'@-+].].)@!@~@{@]@^@/@(@_@Z.Z.:@<@[@Z.Z.}@|@1@2@B+3@4@  ",
"  5@6 6@p+-+].].7@8@9@0@a@b@c@d@e@Z.Z.Z.Z.Z.Z.f@g@h@i@j@k@l@m@  ",
"    n@o@p@q@].].].].].].].].].r@s@Z.Z.Z.Z.t@u@v@w@x@y@z@A@B@    ",
"    _ C@D@E@].].].].].].].F@G@H@I@Z.Z.J@K@L@M@N@O@P@l+Q@R@S@    ",
"      T@U@V@W@].X@Y@Z@`@ #.#+#@###Z.Z.$#%#&#*#=#-#7+;#>#,#      ",
"      '#)#!#~#{#]#^#/#(#_#:#:#<#[#Z.Z.$#}#|#1#2#3#3@>#4#5#      ",
"        6#7#8#9#0#a#b#b#b#(.(.c#d#Z.Z.`.e#f#L.B+g#h#i#j#        ",
"          k#l#:.:.a.s.s.m#n#n#o#p#Z.Z.q#r#s#l+t#u#v#w#          ",
"            x#y#<.<.<.<.<.<.<.z#A#J@Z.L+B#C#D#E#F#G#            ",
"              ).[.b.b.b.b.#+-#-#H#I#J#K#L#M#N#O#5#              ",
"                  c.t.P#Q#R#B+S#T#U#V#W#X#Y#S@                  ",
"                      Z#`#^+ $B+.$+$@$#$$$                      ",
"                                                                "};
