/* XPM */
static char * freepops_16_xpm[] = {
"16 16 101 2",
"  	c None",
". 	c #CB0000",
"+ 	c #CC0404",
"@ 	c #B7503C",
"# 	c #CE1010",
"$ 	c #D63838",
"% 	c #CE0C0C",
"& 	c #CC0808",
"* 	c #CD221F",
"= 	c #75B375",
"- 	c #6EBA6E",
"; 	c #46B246",
"> 	c #36AA36",
", 	c #54A954",
"' 	c #81BF7B",
") 	c #62D462",
"! 	c #45D945",
"~ 	c #34D634",
"{ 	c #26D326",
"] 	c #1BC91B",
"^ 	c #118811",
"/ 	c #FE9B5A",
"( 	c #FE761C",
"_ 	c #103FCE",
": 	c #204CD1",
"< 	c #75B175",
"[ 	c #469646",
"} 	c #2D8F2D",
"| 	c #1FAE1F",
"1 	c #129F12",
"2 	c #0B8E0B",
"3 	c #06B206",
"4 	c #01A601",
"5 	c #287728",
"6 	c #FE6804",
"7 	c #FE6500",
"8 	c #0838CC",
"9 	c #0032CB",
"0 	c #1C48D0",
"a 	c #76B776",
"b 	c #449444",
"c 	c #C2DA14",
"d 	c #B6E00D",
"e 	c #78DA09",
"f 	c #77BB06",
"g 	c #00A000",
"h 	c #107010",
"i 	c #FE8638",
"j 	c #FEA467",
"k 	c #1845D0",
"l 	c #335BD6",
"m 	c #51B551",
"n 	c #2D8E2D",
"o 	c #1F9E06",
"p 	c #08C000",
"q 	c #14BA01",
"r 	c #02A300",
"s 	c #006400",
"t 	c #40B040",
"u 	c #228A22",
"v 	c #3DE603",
"w 	c #6ECE06",
"x 	c #009E00",
"y 	c #045C04",
"z 	c #38AB38",
"A 	c #1C8A1A",
"B 	c #00CC00",
"C 	c #00BC00",
"D 	c #00B200",
"E 	c #006F00",
"F 	c #5A7337",
"G 	c #FE8433",
"H 	c #FE7820",
"I 	c #3CA43C",
"J 	c #189C14",
"K 	c #6CD807",
"L 	c #00A800",
"M 	c #008F00",
"N 	c #006500",
"O 	c #2A5C2A",
"P 	c #E2853D",
"Q 	c #449A44",
"R 	c #0AAA0A",
"S 	c #00BA00",
"T 	c #009100",
"U 	c #007900",
"V 	c #015801",
"W 	c #265C26",
"X 	c #FE7418",
"Y 	c #126F12",
"Z 	c #016D01",
"` 	c #016501",
" .	c #1A641A",
"..	c #396B39",
"+.	c #AD84FE",
"@.	c #9865FE",
"#.	c #A578FE",
"$.	c #9A68FE",
"%.	c #9D6CFE",
"&.	c #B28CFE",
"*.	c #AE86FE",
"                .               ",
"              . . +             ",
"      @ #     $ % $             ",
"      & . * = - ; > ,           ",
"      @ @ ' ) ! ~ { ] ^   / (   ",
"  _ :   < [ } | 1 2 3 4 5 6 7 ( ",
"8 9 0 a b c d e d d f g h i ( j ",
"  k l m n d o p d q d r s       ",
"      t u d d v d d w x y       ",
"l k : z A d B C d D x E F G H   ",
"8 9 0 I J K C L d M N O P 7 (   ",
"  k l Q R S x T U V W   P X P   ",
"        Y Z `  ...+.@.#.        ",
"          $.%.&.  @.@.@.        ",
"          $.@.%.    @.+.        ",
"          *.%.*.                "};
