/* XPM */
static char * freepops_32_xpm[] = {
"32 32 312 2",
"  	c None",
". 	c #EB9E9E",
"+ 	c #D52F2F",
"@ 	c #CB0000",
"# 	c #E16F6F",
"$ 	c #CE0F0F",
"% 	c #A3D6A3",
"& 	c #5EAD5E",
"* 	c #459845",
"= 	c #3B893B",
"- 	c #338433",
"; 	c #318D31",
"> 	c #4CA74C",
", 	c #AADAAA",
"' 	c #D4897D",
") 	c #82C182",
"! 	c #68A568",
"~ 	c #61AB61",
"{ 	c #56BB56",
"] 	c #4FCF4F",
"^ 	c #47D947",
"/ 	c #3DD63D",
"( 	c #36C236",
"_ 	c #30A330",
": 	c #288128",
"< 	c #3F9C3F",
"[ 	c #9CB684",
"} 	c #79B479",
"| 	c #72BE72",
"1 	c #63D663",
"2 	c #53DC53",
"3 	c #40D840",
"4 	c #38D638",
"5 	c #30D530",
"6 	c #29D329",
"7 	c #24D224",
"8 	c #1EBC1E",
"9 	c #157D15",
"0 	c #238523",
"a 	c #84C184",
"b 	c #7BBB7B",
"c 	c #73D773",
"d 	c #61DF61",
"e 	c #52DC52",
"f 	c #43D943",
"g 	c #22D222",
"h 	c #1CD11C",
"i 	c #18CE18",
"j 	c #12C712",
"k 	c #0AB90A",
"l 	c #026402",
"m 	c #51A251",
"n 	c #2F58D5",
"o 	c #0032CB",
"p 	c #6F8CE1",
"q 	c #82BE82",
"r 	c #85C185",
"s 	c #75DE75",
"t 	c #63DF63",
"u 	c #50DB50",
"v 	c #33D533",
"w 	c #27D327",
"x 	c #20D220",
"y 	c #1AD01A",
"z 	c #15CF15",
"A 	c #10CE10",
"B 	c #0CC90C",
"C 	c #08C208",
"D 	c #03B603",
"E 	c #008E00",
"F 	c #005C00",
"G 	c #FEC49E",
"H 	c #FE822F",
"I 	c #FE6500",
"J 	c #FEA86F",
"K 	c #0F3FCE",
"L 	c #98CF98",
"M 	c #82BF82",
"N 	c #4A874A",
"O 	c #275627",
"P 	c #1A451A",
"Q 	c #134113",
"R 	c #104910",
"S 	c #116A11",
"T 	c #12A412",
"U 	c #0B880B",
"V 	c #055105",
"W 	c #034203",
"X 	c #035703",
"Y 	c #038E03",
"Z 	c #01B101",
"` 	c #00B000",
" .	c #00A300",
"..	c #005800",
"+.	c #79B079",
"@.	c #FE6F0F",
"#.	c #77AE77",
"$.	c #76D976",
"%.	c #265326",
"&.	c #CDCC0F",
"*.	c #D6D60F",
"=.	c #E1DB0D",
"-.	c #E0DB0D",
";.	c #C0D30D",
">.	c #68CC0A",
",.	c #026802",
"'.	c #A7B609",
").	c #E0DB0C",
"!.	c #D7D70C",
"~.	c #85B307",
"{.	c #089100",
"].	c #006500",
"^.	c #318231",
"/.	c #80C380",
"(.	c #6AB56A",
"_.	c #5DDD5D",
":.	c #194519",
"<.	c #DFDB0E",
"[.	c #87ED24",
"}.	c #5CD91A",
"|.	c #4DD50F",
"1.	c #5EDE07",
"2.	c #5BE905",
"3.	c #007600",
"4.	c #D6D70C",
"5.	c #61E805",
"6.	c #4FD904",
"7.	c #B9D70A",
"8.	c #97D008",
"9.	c #009900",
"0.	c #00A000",
"a.	c #007400",
"b.	c #106710",
"c.	c #52A252",
"d.	c #5CCC5C",
"e.	c #4DDB4D",
"f.	c #134213",
"g.	c #DCDB0E",
"h.	c #2BE51F",
"i.	c #11DF11",
"j.	c #03D303",
"k.	c #00E000",
"l.	c #00EB00",
"m.	c #D8DA0C",
"n.	c #2FDD02",
"o.	c #00D300",
"p.	c #136E01",
"q.	c #E3DC0C",
"r.	c #06A800",
"s.	c #009B00",
"t.	c #007D00",
"u.	c #004B00",
"v.	c #FEC59F",
"w.	c #448E44",
"x.	c #53D853",
"y.	c #44D944",
"z.	c #104010",
"A.	c #DDD90D",
"B.	c #26950D",
"C.	c #346304",
"D.	c #346302",
"E.	c #218A01",
"F.	c #00AB00",
"G.	c #003B00",
"H.	c #E2DC0C",
"I.	c #23C302",
"J.	c #007700",
"K.	c #255C02",
"L.	c #DBDB0C",
"M.	c #01B300",
"N.	c #009500",
"O.	c #007E00",
"P.	c #004900",
"Q.	c #3C8A3C",
"R.	c #4ADA4A",
"S.	c #3CD73C",
"T.	c #0D3E0D",
"U.	c #E5DD0D",
"V.	c #D5DC0C",
"W.	c #D7DC0C",
"X.	c #E0DD0C",
"Y.	c #15DF01",
"Z.	c #0A4200",
"`.	c #56AD04",
" +	c #5D9105",
".+	c #C7D50B",
"++	c #7FD307",
"@+	c #00B900",
"#+	c #008F00",
"$+	c #004600",
"%+	c #378737",
"&+	c #42D642",
"*+	c #35D635",
"=+	c #0B3C0B",
"-+	c #E4DC0D",
";+	c #2EEC0E",
">+	c #03D403",
",+	c #00CC00",
"'+	c #00F000",
")+	c #184D01",
"!+	c #DDDD0C",
"~+	c #CDDB0B",
"{+	c #72D306",
"]+	c #02BF00",
"^+	c #00A800",
"/+	c #008600",
"(+	c #005900",
"_+	c #105C10",
":+	c #9EB1EB",
"<+	c #348634",
"[+	c #3CCF3C",
"}+	c #2FD52F",
"|+	c #0C3E09",
"1+	c #0CD00A",
"2+	c #02D502",
"3+	c #00CB00",
"4+	c #01B501",
"5+	c #225101",
"6+	c #E4DC0C",
"7+	c #00D100",
"8+	c #00BB00",
"9+	c #00BE00",
"0+	c #004000",
"a+	c #649764",
"b+	c #389538",
"c+	c #37C337",
"d+	c #0E4208",
"e+	c #06CC06",
"f+	c #00CA00",
"g+	c #00C800",
"h+	c #00C500",
"i+	c #265202",
"j+	c #E0DC0C",
"k+	c #00A600",
"l+	c #009800",
"m+	c #008500",
"n+	c #007500",
"o+	c #004A00",
"p+	c #084C08",
"q+	c #3C993C",
"r+	c #31B231",
"s+	c #23D123",
"t+	c #114C08",
"u+	c #04CC04",
"v+	c #00C400",
"w+	c #00BF00",
"x+	c #00A100",
"y+	c #275502",
"z+	c #DEDB0C",
"A+	c #009A00",
"B+	c #008800",
"C+	c #007C00",
"D+	c #007200",
"E+	c #003800",
"F+	c #A9BCA9",
"G+	c #57AE57",
"H+	c #2B992B",
"I+	c #1CCE1C",
"J+	c #10870B",
"K+	c #C9DC0C",
"L+	c #01DE01",
"M+	c #00B200",
"N+	c #009D00",
"O+	c #1A7401",
"P+	c #C7D60B",
"Q+	c #007900",
"R+	c #006600",
"S+	c #003400",
"T+	c #A9BAA9",
"U+	c #9FB2EB",
"V+	c #93CF93",
"W+	c #208020",
"X+	c #14C114",
"Y+	c #09AD09",
"Z+	c #02CA02",
"`+	c #00D200",
" @	c #00AA00",
".@	c #009300",
"+@	c #009200",
"@@	c #008C00",
"#@	c #003A00",
"$@	c #0F4B0F",
"%@	c #C4CDC4",
"&@	c #1A7F1A",
"*@	c #0B8C0B",
"=@	c #02AE02",
"-@	c #00A200",
";@	c #008D00",
">@	c #007B00",
",@	c #003C00",
"'@	c #033E03",
")@	c #648F64",
"!@	c #AFD4AF",
"~@	c #046104",
"{@	c #006700",
"]@	c #008000",
"^@	c #005A00",
"/@	c #004800",
"(@	c #034703",
"_@	c #508150",
":@	c #D8C4FE",
"<@	c #AB82FE",
"[@	c #9865FE",
"}@	c #C5A8FE",
"|@	c #318631",
"1@	c #035C03",
"2@	c #004D00",
"3@	c #035203",
"4@	c #186518",
"5@	c #508750",
"6@	c #A9BFA9",
"7@	c #9E6FFE",
"                                                                ",
"                            . + @ #                             ",
"                          # @ @ @ $                             ",
"                          @ @ @ @ @                             ",
"                  + @ #   $ @ @ @ #                             ",
"              # @ @ @ $   # @ +                                 ",
"              @ @ @ @ @     % & * = - ; > ,                     ",
"              $ @ @ @ ' ) ! ~ { ] ^ / ( _ : <                   ",
"              # @ + [ } | 1 2 ^ 3 4 5 6 7 8 9 0                 ",
"                  a b c d e f 4 5 6 g h i j k l m               ",
"      n o p     q r s t u 3 v w x y z A B C D E F     G H I J   ",
"  p o o o K   L M N O P Q R S T U V W X Y Z `  ...+.J I I I @.  ",
"  o o o o o   #.$.%.&.*.=.-.;.>.,.'.).!.~.{. . .].^.I I I I I   ",
"  K o o o p /.(._.:.<.[.}.|.1.2.3.4.5.6.7.8.9.0.a.b.@.I I I J   ",
"  p o n     c.d.e.f.g.h.i.j.k.l...m.n.o.p.q.r.s.t.u.J I H v.    ",
"            w.x.y.z.A.B.C.D.E.F.G.H.I.J.K.L.M.N.O.P.            ",
"            Q.R.S.T.-.U.V.W.X.Y.Z.U.`. +.+++@+#+a.$+            ",
"            %+&+*+=+-+;+>+,+l.'+)+U.!+~+{+]+^+/+(+_+            ",
"    :+n o p <+[+}+|+U.1+2+3+3+4+5+6+7+8+9+^+/+J.0+a+G H I J     ",
"  p o o o K b+c+6 d+U.e+f+g+h+F.i+j+k+l+E m+n+o+p+J I I I @.    ",
"  o o o o o q+r+s+t+6+u+v+w+@+x+y+z+A+B+C+D+P.E+F+I I I I I     ",
"  K o o o p G+H+I+J+K+L+@+M+F.N+O+P+x+Q+R+0+S+T+  @.I I I J     ",
"  p o n U+  V+W+X+Y+Z+`+ @ .N+.@t.+@@@..#@$@%@    J I H v.      ",
"              &@*@=@F.-@A+.@;@/+>@(+,@'@)@                      ",
"              !@~@{@]@@@/+D+^@/@,@(@_@  :@<@[@}@                ",
"                  |@1@2@o+3@4@5@6@    }@[@[@[@7@                ",
"                            <@[@}@    [@[@[@[@[@                ",
"                          [@[@[@7@    7@[@[@[@}@                ",
"                        [@[@[@[@[@    }@[@<@                    ",
"                        7@[@[@[@}@                              ",
"                        }@[@<@                                  ",
"                                                                "};
