/* XPM */
static char *freepops-16[] = {
/* columns rows colors chars-per-pixel */
"16 16 145 2",
"   c #002F71",
".  c #087000",
"X  c #0D7A15",
"o  c #680000",
"O  c #792100",
"+  c #407A00",
"@  c #407B00",
"#  c #000091",
"$  c #000093",
"%  c #000096",
"&  c #000097",
"*  c #00009B",
"=  c #000D90",
"-  c #0000A2",
";  c #0909AC",
":  c #1212B5",
">  c #1919B0",
",  c #2323B9",
"<  c #2727C3",
"1  c #3E3ECD",
"2  c #693FA8",
"3  c #6E46B4",
"4  c #7344B4",
"5  c #7345B8",
"6  c #7546BB",
"7  c #5757D8",
"8  c #7A49C2",
"9  c #7A49C3",
"0  c #7D4BC5",
"q  c #7C52C3",
"w  c #008200",
"e  c #008500",
"r  c #008600",
"t  c #008900",
"y  c #008B00",
"u  c #008C02",
"i  c #008E00",
"p  c #078D00",
"a  c #058D09",
"s  c #009300",
"d  c #039203",
"f  c #009400",
"g  c #009700",
"h  c #009800",
"j  c #009A00",
"k  c #009D00",
"l  c #009E00",
"z  c #00A000",
"x  c #00A200",
"c  c #00A500",
"v  c #05A305",
"b  c #00AA00",
"n  c #00AD00",
"m  c #00AE00",
"M  c #07A907",
"N  c #00B000",
"B  c #00B200",
"V  c #00B300",
"C  c #00B800",
"Z  c #00BA00",
"A  c #00BD00",
"S  c #00BF00",
"D  c #0DB200",
"F  c #19B919",
"G  c #2A8500",
"H  c #20A020",
"J  c #27AA27",
"K  c #39AA39",
"L  c #3CAA3C",
"P  c #01C401",
"I  c #07C007",
"U  c #03C903",
"Y  c #06C806",
"T  c #0FC90F",
"R  c #10C507",
"E  c #14D114",
"W  c #1BD019",
"Q  c #2EDF2E",
"!  c #4C850C",
"~  c #7C9000",
"^  c #668D26",
"/  c #47BB47",
"(  c #4DB04D",
")  c #6EBA6E",
"_  c #4CC04C",
"`  c #56ED56",
"'  c #6EC86E",
"]  c #7BF77B",
"[  c #7EFA7E",
"{  c #8C0000",
"}  c #8E0000",
"|  c #930000",
" . c #960000",
".. c #9C0000",
"X. c #9F0000",
"o. c #993300",
"O. c #A00000",
"+. c #A70201",
"@. c #A90000",
"#. c #AB0E0E",
"$. c #BA1B1B",
"%. c #BD1E1E",
"&. c #BF3030",
"*. c #994E00",
"=. c #A94000",
"-. c #B34300",
";. c #B44300",
":. c #BC4600",
">. c #C04700",
",. c #C14800",
"<. c #C44B00",
"1. c #C44E00",
"2. c #CB4E03",
"3. c #CB5710",
"4. c #D14E00",
"5. c #D7580C",
"6. c #C56D1E",
"7. c #DC641C",
"8. c #CF4141",
"9. c #DB6B6B",
"0. c #8048C8",
"q. c #8350D1",
"w. c #8754D2",
"e. c #816AC0",
"r. c #9363DB",
"t. c #809700",
"y. c #869000",
"u. c #869302",
"i. c #809800",
"p. c #819801",
"a. c #859A05",
"s. c #879A07",
"d. c #889508",
"f. c #899C09",
"g. c #919D11",
"h. c #A5A900",
"j. c #F38C4E",
"k. c #FAA673",
"l. c #C0C200",
"z. c #C1C301",
"x. c #85BC85",
"c. c #C29DF9",
"v. c #CCAFF7",
"b. c gray100",
"n. c None",
/* pixels */
"n.n.n.n.n.n.n.@...n.n.n.n.n.n.n.",
"n.n.n.n.n.n. .9.%.} n.n.n.n.n.n.",
"n.n.n...8.$.} #.X.o n.n.n.n.n.n.",
"n.n.n.| &.+.D R E I N S n.n.n.n.",
"n.n.n.n.O W [ ] ` Q U x b n.=.n.",
"n.; 1 = F ) x.' _ J Y S g 7.j.>.",
"n.> <   L z.g.^ f.u.y.C l 3.5.:.",
"n.& $ v K d.( / a.. h.z h *.;.n.",
"n.* n.M H z.s.! i.~ G V p 4.1.n.",
"* 7 : y i i.T P i.y N h 6.k.<.n.",
"& , - r g @ C C + i l g ,.2.-.n.",
"n.$ n.r z N n n x a e.0.o.n.n.n.",
"n.n.n.n.t r w X w q v.q.n.n.n.n.",
"n.n.n.n.n.n.r.c.8 4 8 3 n.n.n.n.",
"n.n.n.n.n.n.0 w.6 n.n.n.n.n.n.n.",
"n.n.n.n.n.n.2 5 n.n.n.n.n.n.n.n."
};
