/* XPM */
static char * liberopops_16_xpm[] = {
"16 16 161 2",
"  	c None",
". 	c #8FBCE9",
"+ 	c #4590DA",
"@ 	c #3F8CD8",
"# 	c #7BAFE4",
"$ 	c #94BEE8",
"% 	c #66A3E0",
"& 	c #4A93DB",
"* 	c #3D8BD8",
"= 	c #3787D7",
"- 	c #3083D6",
"; 	c #2F82D5",
"> 	c #498ED3",
", 	c #9DC4EB",
"' 	c #62A0DE",
") 	c #3D8AD8",
"! 	c #267DD3",
"~ 	c #1E78D2",
"{ 	c #1974CF",
"] 	c #1873CF",
"^ 	c #1772CE",
"/ 	c #126CC5",
"( 	c #2272C1",
"_ 	c #E4D4CE",
": 	c #EBAB82",
"< 	c #98BDE3",
"[ 	c #1572CF",
"} 	c #076ACD",
"| 	c #0468CD",
"1 	c #0267CC",
"2 	c #0569CD",
"3 	c #0567CA",
"4 	c #0261BE",
"5 	c #1868B7",
"6 	c #B0CFEE",
"7 	c #E5AB89",
"8 	c #FF6600",
"9 	c #ACB4C4",
"0 	c #0167CC",
"a 	c #0066CC",
"b 	c #0166CC",
"c 	c #0A6CCE",
"d 	c #0061C2",
"e 	c #0059B4",
"f 	c #3475B6",
"g 	c #85B5E6",
"h 	c #E69E71",
"i 	c #88B1DC",
"j 	c #0368CD",
"k 	c #3787D6",
"l 	c #70A5E2",
"m 	c #7DA6E4",
"n 	c #7BA6E4",
"o 	c #5E9BDB",
"p 	c #0D63BA",
"q 	c #0958A7",
"r 	c #8EBBE9",
"s 	c #6CA7E2",
"t 	c #E59664",
"u 	c #74A7DC",
"v 	c #4A92DB",
"w 	c #6387DD",
"x 	c #1C4BD2",
"y 	c #0235CC",
"z 	c #0639CD",
"A 	c #3862D6",
"B 	c #79A4D8",
"C 	c #05529F",
"D 	c #507FAF",
"E 	c #428DD9",
"F 	c #65A2E0",
"G 	c #E69665",
"H 	c #1D4ED2",
"I 	c #093CCE",
"J 	c #7296E2",
"K 	c #90ACE9",
"L 	c #0134CC",
"M 	c #5B82DA",
"N 	c #2867A7",
"O 	c #064C93",
"P 	c #5E9EDE",
"Q 	c #E79664",
"R 	c #589BDE",
"S 	c #3966D7",
"T 	c #1C4CD2",
"U 	c #97BDEA",
"V 	c #799AE3",
"W 	c #638AD8",
"X 	c #1D5E9E",
"Y 	c #054C93",
"Z 	c #5A9CDE",
"` 	c #E79764",
" .	c #9FC1E4",
"..	c #72A6DB",
"+.	c #99AECA",
"@.	c #CAC6CB",
"#.	c #4F71D6",
"$.	c #1344D0",
"%.	c #5F85DF",
"&.	c #093BCE",
"*.	c #2453D3",
"=.	c #709DD0",
"-.	c #01488E",
";.	c #4F7AA7",
">.	c #5899DC",
",.	c #E59767",
"'.	c #F48134",
").	c #F27C2F",
"!.	c #F56E16",
"~.	c #FE8B3F",
"{.	c #687ACA",
"].	c #0033CC",
"^.	c #0538CD",
"/.	c #3D68D8",
"(.	c #78A5DB",
"_.	c #1158A0",
":.	c #094682",
"<.	c #6AA3DC",
"[.	c #D1AA95",
"}.	c #FE6601",
"|.	c #EB823F",
"1.	c #F2A16C",
"2.	c #F5AE7F",
"3.	c #E0C3B3",
"4.	c #6482DB",
"5.	c #0C3ECD",
"6.	c #86AAE7",
"7.	c #478AD0",
"8.	c #0857A6",
"9.	c #004284",
"0.	c #345F8B",
"a.	c #77AADC",
"b.	c #9CAFC8",
"c.	c #5F9BD7",
"d.	c #1570CB",
"e.	c #0264C8",
"f.	c #1E76CF",
"g.	c #6184DF",
"h.	c #0D3FCE",
"i.	c #6F9CD9",
"j.	c #0051A1",
"k.	c #004183",
"l.	c #184A7C",
"m.	c #1969BB",
"n.	c #005AB6",
"o.	c #015BB6",
"p.	c #7592E2",
"q.	c #0336CD",
"r.	c #7196CE",
"s.	c #003F7F",
"t.	c #184777",
"u.	c #0050A1",
"v.	c #004D9B",
"w.	c #769AC8",
"x.	c #698ED5",
"y.	c #6488B1",
"z.	c #345D87",
"A.	c #507FB0",
"B.	c #064D94",
"C.	c #0E5397",
"D.	c #7094B8",
"            . + @ #             ",
"        $ % & * = - ; >         ",
"      , ' ) ! ~ { ] ^ / (       ",
"    _ : < [ } | 1 1 2 3 4 5     ",
"  6 7 8 9 0 a a a b c 2 d e f   ",
"  g h 8 i a a j k l m n o p q   ",
"r s t 8 u a a v w x y z A B C D ",
"E F G 8 u a a % H I J K L M N O ",
") P Q 8 u a a R S T U V L W X Y ",
"# Z ` 8  ...+.@.#.$.%.&.*.=.-.;.",
"  >.,.8 '.).!.~.{.].^./.(._.:.  ",
"  <.[.}.|.1.2.3.4.5.6.7.8.9.0.  ",
"    a.b.c.d.e.f.g.h.i.j.k.l.    ",
"      m.e n.o.p p.q.r.s.t.      ",
"        f q u.v.w.x.y.z.        ",
"            A.B.C.D.            "};
