/* XPM */
static char *freepops-updater-fltk-32[] = {
/* columns rows colors chars-per-pixel */
"32 32 226 2",
"   c black",
".  c #0D0D00",
"X  c #131300",
"o  c #1C1C00",
"O  c #232300",
"+  c #282601",
"@  c #2C2C02",
"#  c #2A3F01",
"$  c #333301",
"%  c #383503",
"&  c #3B3901",
"*  c #00007F",
"=  c #004600",
"-  c #0D4C00",
";  c #005300",
":  c #005C00",
">  c #145C01",
",  c #006300",
"<  c #006C00",
"1  c #0C6B00",
"2  c #007300",
"3  c #007A00",
"4  c #146500",
"5  c #127001",
"6  c #234D01",
"7  c #2F4D00",
"8  c #205B00",
"9  c #2B5D00",
"0  c #364E01",
"q  c #315F19",
"w  c #2E6E01",
"e  c #3C6604",
"r  c #403E02",
"t  c #444201",
"y  c #484601",
"u  c #4A4A01",
"i  c #455706",
"p  c #4C5A0D",
"a  c #504D01",
"s  c #545102",
"d  c #5C5801",
"f  c #486500",
"g  c #4F6907",
"h  c #427401",
"j  c #536A0B",
"k  c #586700",
"l  c #5D6C05",
"z  c #5A6C12",
"x  c #5C7402",
"c  c #416329",
"v  c #625E02",
"b  c #6D6A03",
"n  c #66700E",
"m  c #6E7700",
"M  c #716E02",
"N  c #747102",
"B  c #737A01",
"V  c #7A7603",
"C  c #787900",
"Z  c #000083",
"A  c #00008B",
"S  c #000095",
"D  c #00009C",
"F  c #0404A7",
"G  c #0404AA",
"H  c #0B0BAF",
"J  c #0000B3",
"K  c #0D0DB4",
"L  c #1313A9",
"P  c #1616B3",
"I  c #1414B8",
"U  c #3333BA",
"Y  c #3636C0",
"T  c #6D37A4",
"R  c #693CA5",
"E  c #6342A5",
"W  c #6644AA",
"Q  c #6C41AD",
"!  c #6D41B1",
"~  c #7245B6",
"^  c #7246B9",
"/  c #4545C9",
"(  c #4C4CCB",
")  c #5B5BDB",
"_  c #764EC4",
"`  c #7A49C3",
"'  c #6565D4",
"]  c #7373DC",
"[  c #7C7CE3",
"{  c #008300",
"}  c #008C00",
"|  c #098809",
" . c #009200",
".. c #009C00",
"X. c #099A09",
"o. c #158915",
"O. c #00A300",
"+. c #00AB00",
"@. c #00B300",
"#. c #00BC00",
"$. c #17AD17",
"%. c #1AAF1A",
"&. c #16BB16",
"*. c #26B026",
"=. c #00C200",
"-. c #01C901",
";. c #0AC40A",
":. c #0FD00F",
">. c #14CB14",
",. c #1CCE1C",
"<. c #16D416",
"1. c #1AD41A",
"2. c #25CC25",
"3. c #2FCF2F",
"4. c #27D327",
"5. c #2DDC2D",
"6. c #3ADC3A",
"7. c #37E337",
"8. c #3CE53C",
"9. c #4D9C4D",
"0. c #49B549",
"q. c #42DF42",
"w. c #4EDD4E",
"e. c #52C252",
"r. c #5AC65A",
"t. c #43E443",
"y. c #45EC45",
"u. c #4DE34D",
"i. c #4BEA4B",
"p. c #53EC53",
"a. c #58E558",
"s. c #5BEA5B",
"d. c #5AF25A",
"f. c #60C860",
"g. c #67F167",
"h. c #6DF06D",
"j. c #73EF73",
"k. c #7AF67A",
"l. c #840000",
"z. c #8B0000",
"x. c #940000",
"c. c #9B0000",
"v. c #9D3B00",
"b. c #A40000",
"n. c #A90303",
"m. c #AB0808",
"M. c #AF1A1A",
"N. c #B10000",
"B. c #B61919",
"V. c #A43D00",
"C. c #B62828",
"Z. c #B92222",
"A. c #BB2929",
"S. c #827D02",
"D. c #AD4000",
"F. c #B74400",
"G. c #BB4600",
"H. c #C01E1E",
"J. c #C54A00",
"K. c #CC4C01",
"L. c #CC530A",
"P. c #D95200",
"I. c #DE7232",
"U. c #DD793D",
"Y. c #FF6000",
"T. c #E37636",
"R. c #E47A3C",
"E. c #EC7A36",
"W. c #C34040",
"Q. c #CA4949",
"!. c #CA5353",
"~. c #D24747",
"^. c #D45353",
"/. c #D35B5B",
"(. c #E27070",
"). c #8055AA",
"_. c #814DCC",
"`. c #8354CB",
"'. c #925BDB",
"]. c #9261DB",
"[. c #9A6CDF",
"{. c #A879EE",
"}. c #878900",
"|. c #8A8503",
" X c #8F8B03",
".X c #859003",
"XX c #8F9100",
"oX c #919200",
"OX c #929B03",
"+X c #999403",
"@X c #9E9903",
"#X c #9EBD03",
"$X c #A19B02",
"%X c #ACA604",
"&X c #A8A800",
"*X c #B3AC04",
"=X c #B8B800",
"-X c #C4BD03",
";X c #F8A26E",
":X c #F2A578",
">X c #C5CE04",
",X c #C8C004",
"<X c #C8C800",
"1X c #D3CC05",
"2X c #D1D100",
"3X c #DBD405",
"4X c #E6E600",
"5X c #EAE405",
"6X c #F3EB05",
"7X c #8E8EE2",
"8X c #B68DEE",
"9X c #B490EA",
"0X c #A8A8EA",
"qX c #81F581",
"wX c #8CFA8C",
"eX c #96FA96",
"rX c #A5FAA5",
"tX c #A9FBA9",
"yX c #B3FCB3",
"uX c #E08787",
"iX c #E69B9B",
"pX c #F7BB98",
"aX c #C1A1EF",
"sX c #DFCBFD",
"dX c gray100",
"fX c None",
/* pixels */
"fXfXfXfXfXfXfXfXfXfXfXfXfXfXfXfXfXfXfXfXfXfXfXfXfXfXfXfXfXfXfXfX",
"fXfXfXfXfXfXfX-.-.=.=.#.@.@.@.@.fXfXfXfXfXfXfXfXfXfXfXfXfXfXfXfX",
"fXfXfXfXfX-.-.:.8.d.d.i.7.1.;.O.O.+.fXfXfXfXfXfXfXfXfXfXfXfXfXfX",
"fXfXfXfX=.=.y.eXwXk.g.p.8.5.<.-.@. .O.fXfXfXfXfXfXfXfXfXfXfXfXfX",
"fXfXfX=.#.j.yXtXeXqXh.p.t.5.1.-.=.#.} ..fXfXfXfXfXfXfXfXfXfXfXfX",
"fXfX@.@.a.rXyXtXeXqXh.a.t.5.1.-.=.#.@.3 ..fXfXfXfXfXfXfXfXfXfXfX",
"fXfX+.3.c n n n n p e.q n k e } =.#.@... .fXfXfXfXfXfXfXfXfXfXfX",
"fX+.O.s.z 4X&X&X&XC 0.j 4X&X<X2X4 #.@.+.3 fXfXfXfXfXfXfXfXfXfXfX",
"fXO.&.s.z =X9.f.r.e.w.j =X|  .XXB @.@.+.< fXfXfXfXfXfXfXfXfXfXfX",
"fX..2.u.j =X0.s.a.u.q.g =X..#.B oXO.@.O.3 fXfXfXfXfXfXfXfXfXfXfX",
"fX} 2.6.j <Xl x x i *.f 2Xk C 5X9 @.+...{ fXfXfXfXN.n.fXfXfXfXfX",
"fX{ ,.4.j 4X&X&X&XC X.f 4X&X}.> ..@.+.2 } fXfXfXB.(./.m.c.fXfXfX",
"fX3 ;.>.f =Xo.%.$.+.#.f =X3 +.@.1 5 3 2 fXfXfXfXQ.iX/.n.x.fXfXfX",
"+.2 #.=.f =XX.;.;.=.#.f =X} @.@.w #XOXB s +   z.C.W.m.c.z.fXfXfX",
" ., #.#.f =X .#.#.#.#.f =X} +.+.e >X6X6X3Xd o l.x.c.x.z.z.fXfXfX",
"fX, +.@.0 B  .@.@.@.@.0 C } +...x 5X6X1X%   fXfXl.z.l.fXfXfXfXfX",
"fX2 } @.....+.@.@.+.@. .} O...; .X|.a 3Xv   fXfXfXfXfXfXfXfXfXfX",
"fX} ; O.+.+.+.+.+...> O.O.} , : 0     N ,Xu   fXfXfXfXfXP.J.fXfX",
"fXfX2 : ..O.O.O.1 0 N 6 ; 2  .fXfXfXfX% $X%X& fXfXfXY.E.;XR.J.fX",
"fXfXfX3 = < { 3 - u V V # fXfXfXfXfXfXfXy %X X@ fXfXL.:XpXT.K.V.",
"fXfXfXfX .3 2 2 3 - u  X|.$ fXfXfXfXfXfX. v @XM O fXJ.U.I.K.F.F.",
"fXfXJ G fXfXfXfXfXfXo u $X|.$ fXfXfX  fXfX@ S.|.s o D.F.G.F.V.fX",
"fXK ) ( F S fXfXfXfXfXX y %X|.$ fXr r fXfXfX& V r o V.V.V.v.fXfX",
"fX/ 0X' G S fXfXfXfXfXfX  r *XS.r -XM fXfXfXX o   fXfXfXfXfXfXfX",
"D U ( H D A fXfXfXfXfXfXfX  & 1X3X6XN fX'.{.[.` fXfXfXfXfXfXfXfX",
"A S D S A Z fXfXfXfXfXfX  & $X3X5X6XM _ 8XsX8X_.^ fXfXfXfXfXfXfX",
"fXZ A Z A fXfXfXfXN.fXfXo a N +X-X5XN `.9X9X].` ! fXJ K D fXfXfX",
"fXfXfXfXfXfXfXN.~.^.B.c.fXfX    X $ @ ^ `.`.` Q W I [ ] P D fXfX",
"fXfXfXfXfXfXfXZ.iXuXB.c.z.fXfXfXfXfXfXR Q Q Q E fXU 7X' G D fXfX",
"fXfXfXfXfXfXfXM.!.A.b.x.fXfXfXfXfXfXfXfXT ).fXfXD L U G D A fXfX",
"fXfXfXfXfXfXfXx.c.c.x.l.fXfXfXfXfXfXfXfXfXfXfXfXfXA S S A Z fXfX",
"fXfXfXfXfXfXfXl.z.l.l.fXfXfXfXfXfXfXfXfXfXfXfXfXfXZ Z * fXfXfXfX"
};
